Coordinates
version=1
nRows=24
nColumns=24
inDegrees=yes

Units are S.I. units (second, meters, Newtons, ...)
Angles are in degrees.

endheader
time	pelvis_tilt	pelvis_list	pelvis_rotation	pelvis_tx	pelvis_ty	pelvis_tz	hip_flexion_r	hip_adduction_r	hip_rotation_r	knee_angle_r	ankle_angle_r	subtalar_angle_r	mtp_angle_r	hip_flexion_l	hip_adduction_l	hip_rotation_l	knee_angle_l	ankle_angle_l	subtalar_angle_l	mtp_angle_l	lumbar_extension	lumbar_bending	lumbar_rotation
      2.55500000	     -8.56055984	      6.56966079	    356.28181185	      0.56169307	      1.37413075	     -0.99797318	      4.72732910	     -4.64799191	      4.79820622	    -34.78293536	     -0.26715744	      1.91670113	     24.43529136	     23.96610950	      9.03989798	      4.21779658	     -7.95782146	    -13.21121124	    -10.06237834	     26.11932426	     -6.99904466	     -1.52348784	     13.90933088
      2.56000000	     -8.49335015	      6.72124566	    356.30913859	      0.56693236	      1.37461311	     -0.99857724	      5.37034431	     -4.92117554	      4.79552182	    -36.32193388	     -1.35165895	      2.42543563	     25.32942358	     23.77757610	      9.30882470	      4.40990342	     -8.34220420	    -12.87027581	    -10.21984987	     25.22862888	     -7.06847588	     -1.71819120	     13.82835624
      2.56500000	     -8.44064161	      6.84551279	    356.33898408	      0.57209745	      1.37507103	     -0.99919765	      6.05727362	     -5.15567362	      4.82235614	    -37.86209017	     -2.44733447	      2.87696787	     26.09715056	     23.59577728	      9.54848420	      4.56397199	     -8.70599951	    -12.52228423	    -10.31843606	     24.32448573	     -7.13602076	     -1.86455135	     13.72897077
      2.57000000	     -8.34345923	      6.97633876	    356.35720709	      0.57722605	      1.37555388	     -0.99978375	      6.71374846	     -5.39290660	      4.87613906	    -39.38461645	     -3.46543123	      3.34462820	     26.69599388	     23.33605797	      9.79042874	      4.66472235	     -9.00455392	    -12.18896446	    -10.38778320	     23.47849456	     -7.25441619	     -2.02422784	     13.64407879
      2.57500000	     -8.29087980	      7.09099271	    356.38018367	      0.58235790	      1.37599703	     -1.00036446	      7.42737557	     -5.59691516	      4.96650552	    -40.87997100	     -4.42403442	      3.79738583	     27.08561402	     23.09239512	     10.00871511	      4.77175505	     -9.24164754	    -11.86530182	    -10.41754290	     22.71373926	     -7.31126760	     -2.16243895	     13.55104225
      2.58000000	     -8.18944996	      7.20666349	    356.39301395	      0.58745333	      1.37647373	     -1.00092480	      8.09403013	     -5.79738646	      5.07610094	    -42.33671562	     -5.24805975	      4.26695429	     27.30785979	     22.76267417	     10.22609452	      4.83895611	     -9.40724779	    -11.57639834	    -10.44422019	     21.99967601	     -7.42407382	     -2.30303183	     13.46925965
      2.58500000	     -8.09546845	      7.30780148	    356.40189780	      0.59251053	      1.37693366	     -1.00147886	      8.77367353	     -5.96971989	      5.20894323	    -43.75383449	     -5.94137929	      4.71711236	     27.37638480	     22.41316431	     10.42313550	      4.89173145	     -9.51364459	    -11.31113199	    -10.46437821	     21.35939401	     -7.52544595	     -2.42196625	     13.39694576
      2.59000000	     -8.01819728	      7.39412477	    356.40855197	      0.59754481	      1.37738847	     -1.00202036	      9.47094064	     -6.11297237	      5.35940679	    -45.12183499	     -6.48302302	      5.14837765	     27.30721887	     22.05349981	     10.59930406	      4.93666625	     -9.56362378	    -11.07618987	    -10.48671689	     20.78137771	     -7.60643746	     -2.52242652	     13.32490763
      2.59500000	     -7.94586734	      7.46133275	    356.40953380	      0.60254329	      1.37784262	     -1.00255311	     10.17056560	     -6.22164957	      5.52923685	    -46.43406041	     -6.86755540	      5.54875355	     27.12780019	     21.67155855	     10.75101783	      4.98206212	     -9.55587904	    -10.87692202	    -10.52337689	     20.27197852	     -7.67962723	     -2.59555775	     13.26439585
      2.60000000	     -7.84281743	      7.51298696	    356.40204678	      0.60751699	      1.37834379	     -1.00306500	     10.82654505	     -6.30491787	      5.70596554	    -47.67676781	     -7.09263658	      5.91777312	     26.85963575	     21.22513629	     10.88444202	      5.02969140	     -9.48794633	    -10.70564556	    -10.57432063	     19.80285584	     -7.78423672	     -2.65355479	     13.22036565
      2.60500000	     -7.74971602	      7.53816386	    356.39037121	      0.61244456	      1.37884890	     -1.00355685	     11.48810902	     -6.34266365	      5.89213420	    -48.85823836	     -7.17491442	      6.18499255	     26.48725825	     20.77168749	     10.98559016	      5.08340768	     -9.38480016	    -10.54631653	    -10.62633865	     19.38525188	     -7.88667239	     -2.66492536	     13.13192766
      2.61000000	     -7.62221764	      7.55717129	    356.34975847	      0.61737267	      1.37941490	     -1.00396366	     12.10020632	     -6.35683215	      6.10772298	    -49.94830389	     -7.15575398	      6.33416251	     26.43637690	     20.24643895	     11.06533954	      5.11251752	     -9.20422372	    -10.47360722	    -10.73167158	     19.25390095	     -8.01770699	     -2.67896957	     13.06049911
      2.61500000	     -7.54128727	      7.56103965	    356.30905209	      0.62225586	      1.37994365	     -1.00439048	     12.76546673	     -6.34465795	      6.32177429	    -50.99109033	     -6.98108623	      6.47715804	     26.24449537	     19.76855498	     11.12985906	      5.17837295	     -9.01901591	    -10.41462047	    -10.90447719	     19.00672877	     -8.09117198	     -2.67888929	     13.04860632
      2.62000000	     -7.46824990	      7.51887864	    356.31487894	      0.62708503	      1.38047632	     -1.00491355	     13.41749688	     -6.29461336	      6.45813341	    -51.96743281	     -6.62594637	      6.58331748	     25.72013458	     19.30999523	     11.17136803	      5.34929629	     -8.87687726	    -10.28100319	    -11.09663306	     18.62774483	     -8.16097771	     -2.62466494	     13.05232855
      2.62500000	     -7.37175745	      7.47373579	    356.26910392	      0.63191482	      1.38106506	     -1.00527946	     14.04091869	     -6.20950297	      6.65581727	    -52.84777798	     -6.30649329	      6.47855977	     25.67702160	     18.80421634	     11.17923313	      5.43126535	     -8.67775985	    -10.18945358	    -11.23308689	     18.53459700	     -8.25786681	     -2.56067422	     12.99579328
      2.63000000	     -7.31616714	      7.40026824	    356.25054157	      0.63671488	      1.38162466	     -1.00572905	     14.69755886	     -6.09969961	      6.80650685	    -53.66963493	     -5.83658302	      6.35712305	     25.39611017	     18.35946008	     11.17473965	      5.61567193	     -8.52539844	    -10.09842117	    -11.51542834	     18.28372044	     -8.29950314	     -2.46906516	     13.01922386
      2.63500000	     -7.21968953	      7.30674912	    356.22127047	      0.64147107	      1.38224251	     -1.00610890	     15.29755395	     -5.95801653	      6.95482563	    -54.40523630	     -5.32973044	      6.10616370	     25.22608080	     17.87746073	     11.14201699	      5.75625339	     -8.38538758	     -9.98600488	    -11.68926714	     18.12305712	     -8.40456507	     -2.34930274	     12.97512774
      2.64000000	     -7.13544440	      7.21851534	    356.19217762	      0.64624005	      1.38285549	     -1.00644709	     15.90414038	     -5.81748400	      7.09194329	    -55.06828499	     -4.79509796	      5.76192757	     25.18058567	     17.41888236	     11.11028713	      5.88770788	     -8.26768620	     -9.83946154	    -11.82498750	     18.03737472	     -8.48610842	     -2.24098497	     12.91342661
      2.64500000	     -7.06512577	      7.09330035	    356.18009093	      0.65097296	      1.38346295	     -1.00681857	     16.51061556	     -5.63833536	      7.19510197	    -55.65445655	     -4.22747754	      5.33092295	     25.07760836	     16.99880342	     11.04770242	      6.05538101	     -8.20613516	     -9.66642171	    -11.98527829	     17.90399138	     -8.55640159	     -2.09034301	     12.86906103
      2.65000000	     -7.00583528	      6.95793730	    356.17914072	      0.65570627	      1.38406773	     -1.00719513	     17.11695330	     -5.45220849	      7.27097380	    -56.16664232	     -3.62836112	      4.85680729	     24.95888183	     16.61202835	     10.97655566	      6.21974622	     -8.19253523	     -9.45492288	    -12.09842813	     17.76514730	     -8.61121967	     -1.92457037	     12.81672443
      2.65500000	     -6.97392757	      6.79249214	    356.20010000	      0.66044577	      1.38465906	     -1.00760743	     17.73348073	     -5.24013597	      7.31232429	    -56.60137750	     -2.97744680	      4.41831861	     24.70550281	     16.27994703	     10.87978184	      6.38506396	     -8.24570404	     -9.13940026	    -12.09939940	     17.47590996	     -8.63512398	     -1.71433263	     12.73857778
      2.66000000	     -6.89731587	      6.63976260	    356.21249738	      0.66513991	      1.38527193	     -1.00796347	     18.29986617	     -5.04225150	      7.34325878	    -56.96451792	     -2.37342076	      3.82935426	     24.63099176	     15.91846353	     10.79135475	      6.50349573	     -8.32067615	     -8.87396764	    -12.10658784	     17.42300210	     -8.71724051	     -1.53791819	     12.66820057
      2.66500000	     -6.83491893	      6.45900319	    356.24607315	      0.66985636	      1.38588951	     -1.00833643	     18.85679426	     -4.82052750	      7.34062712	    -57.24009725	     -1.77832359	      3.22097101	     24.50405888	     15.58898168	     10.67655929	      6.61439519	     -8.44276917	     -8.53218333	    -12.01510788	     17.34204489	     -8.77867698	     -1.32305550	     12.56607552
      2.67000000	     -6.79082301	      6.26687825	    356.29235500	      0.67457223	      1.38649097	     -1.00870418	     19.41933426	     -4.58963260	      7.31617717	    -57.44218983	     -1.18891630	      2.60679219	     24.33036366	     15.30001191	     10.54747202	      6.68648570	     -8.61081278	     -8.12940646	    -11.80248480	     17.24117648	     -8.81999001	     -1.09329592	     12.44803977
